<mxfile host="app.diagrams.net" modified="2023-11-28T18:06:44.929Z" agent="Mozilla/5.0 (Windows NT 10.0; Win64; x64) AppleWebKit/537.36 (KHTML, like Gecko) Chrome/118.0.0.0 Safari/537.36" etag="L2l3vniJm6Db39_wlWvr" version="22.1.4" type="device">
  <diagram name="Сторінка-1" id="OeKJYB-59hZYdsw3ZqMW">
    <mxGraphModel dx="1050" dy="573" grid="1" gridSize="10" guides="1" tooltips="1" connect="1" arrows="1" fold="1" page="1" pageScale="1" pageWidth="827" pageHeight="1169" math="0" shadow="0">
      <root>
        <mxCell id="0" />
        <mxCell id="1" parent="0" />
        <mxCell id="nQn1hIN5MEKfU32s6l5k-212" value="invoice" style="rounded=0;whiteSpace=wrap;html=1;strokeColor=#FF0000;strokeWidth=2;" vertex="1" parent="1">
          <mxGeometry x="400" y="340" width="60" height="20" as="geometry" />
        </mxCell>
        <mxCell id="nQn1hIN5MEKfU32s6l5k-213" value="employee" style="rounded=0;whiteSpace=wrap;html=1;strokeColor=#FF0000;strokeWidth=2;" vertex="1" parent="1">
          <mxGeometry x="140" y="270" width="60" height="20" as="geometry" />
        </mxCell>
        <mxCell id="nQn1hIN5MEKfU32s6l5k-214" value="Customer" style="rounded=0;whiteSpace=wrap;html=1;strokeColor=#FF0000;strokeWidth=2;" vertex="1" parent="1">
          <mxGeometry x="660" y="290" width="60" height="20" as="geometry" />
        </mxCell>
        <mxCell id="nQn1hIN5MEKfU32s6l5k-215" value="Order" style="rounded=0;whiteSpace=wrap;html=1;strokeColor=#FF0000;strokeWidth=2;" vertex="1" parent="1">
          <mxGeometry x="130" y="510" width="70" height="20" as="geometry" />
        </mxCell>
        <mxCell id="nQn1hIN5MEKfU32s6l5k-216" value="Product" style="rounded=0;whiteSpace=wrap;html=1;strokeColor=#FF0000;strokeWidth=2;" vertex="1" parent="1">
          <mxGeometry x="390" y="540" width="60" height="20" as="geometry" />
        </mxCell>
        <mxCell id="nQn1hIN5MEKfU32s6l5k-217" style="edgeStyle=none;rounded=0;jumpStyle=sharp;orthogonalLoop=1;jettySize=auto;html=1;exitX=1;exitY=0.5;exitDx=0;exitDy=0;entryX=0.873;entryY=-0.17;entryDx=0;entryDy=0;strokeColor=#007FFF;fontSize=10;sourcePerimeterSpacing=-5;endArrow=ERzeroToOne;endFill=0;entryPerimeter=0;" edge="1" parent="1" source="nQn1hIN5MEKfU32s6l5k-219" target="nQn1hIN5MEKfU32s6l5k-213">
          <mxGeometry relative="1" as="geometry">
            <Array as="points">
              <mxPoint x="240" y="170" />
              <mxPoint x="240" y="240" />
              <mxPoint x="192" y="240" />
            </Array>
          </mxGeometry>
        </mxCell>
        <mxCell id="nQn1hIN5MEKfU32s6l5k-218" style="edgeStyle=none;rounded=0;jumpStyle=sharp;orthogonalLoop=1;jettySize=auto;html=1;exitX=0;exitY=0.5;exitDx=0;exitDy=0;entryX=0.25;entryY=0;entryDx=0;entryDy=0;strokeColor=#007FFF;fontSize=10;endArrow=ERzeroToMany;endFill=0;sourcePerimeterSpacing=-5;" edge="1" parent="1" source="nQn1hIN5MEKfU32s6l5k-219" target="nQn1hIN5MEKfU32s6l5k-213">
          <mxGeometry relative="1" as="geometry">
            <Array as="points">
              <mxPoint x="120" y="170" />
              <mxPoint x="125" y="240" />
              <mxPoint x="150" y="240" />
            </Array>
          </mxGeometry>
        </mxCell>
        <mxCell id="nQn1hIN5MEKfU32s6l5k-219" value="manages" style="rhombus;whiteSpace=wrap;html=1;strokeColor=#007FFF;strokeWidth=2;" vertex="1" parent="1">
          <mxGeometry x="140" y="150" width="85" height="40" as="geometry" />
        </mxCell>
        <mxCell id="nQn1hIN5MEKfU32s6l5k-220" value="working out" style="rhombus;whiteSpace=wrap;html=1;strokeColor=#007FFF;strokeWidth=2;" vertex="1" parent="1">
          <mxGeometry x="260" y="310" width="80" height="40" as="geometry" />
        </mxCell>
        <mxCell id="nQn1hIN5MEKfU32s6l5k-221" value="" style="edgeStyle=entityRelationEdgeStyle;fontSize=12;html=1;endArrow=ERoneToMany;rounded=0;strokeColor=#007FFF;jumpStyle=sharp;entryX=1;entryY=0.5;entryDx=0;entryDy=0;exitX=0;exitY=0.5;exitDx=0;exitDy=0;" edge="1" parent="1" source="nQn1hIN5MEKfU32s6l5k-220" target="nQn1hIN5MEKfU32s6l5k-213">
          <mxGeometry width="100" height="100" relative="1" as="geometry">
            <mxPoint x="300" y="440" as="sourcePoint" />
            <mxPoint x="400" y="340" as="targetPoint" />
          </mxGeometry>
        </mxCell>
        <mxCell id="nQn1hIN5MEKfU32s6l5k-222" value="" style="edgeStyle=entityRelationEdgeStyle;fontSize=12;html=1;endArrow=ERmandOne;rounded=0;strokeColor=#007FFF;jumpStyle=sharp;exitX=1;exitY=0.5;exitDx=0;exitDy=0;entryX=0;entryY=0.25;entryDx=0;entryDy=0;" edge="1" parent="1" source="nQn1hIN5MEKfU32s6l5k-220" target="nQn1hIN5MEKfU32s6l5k-212">
          <mxGeometry width="100" height="100" relative="1" as="geometry">
            <mxPoint x="360" y="270" as="sourcePoint" />
            <mxPoint x="400" y="350" as="targetPoint" />
          </mxGeometry>
        </mxCell>
        <mxCell id="nQn1hIN5MEKfU32s6l5k-223" value="by" style="rhombus;whiteSpace=wrap;html=1;strokeColor=#007FFF;strokeWidth=2;" vertex="1" parent="1">
          <mxGeometry x="520" y="310" width="80" height="40" as="geometry" />
        </mxCell>
        <mxCell id="nQn1hIN5MEKfU32s6l5k-224" value="" style="edgeStyle=entityRelationEdgeStyle;fontSize=12;html=1;endArrow=ERone;endFill=1;rounded=0;strokeColor=#007FFF;jumpStyle=sharp;exitX=1;exitY=0.5;exitDx=0;exitDy=0;entryX=0;entryY=0.5;entryDx=0;entryDy=0;" edge="1" parent="1" source="nQn1hIN5MEKfU32s6l5k-223" target="nQn1hIN5MEKfU32s6l5k-214">
          <mxGeometry width="100" height="100" relative="1" as="geometry">
            <mxPoint x="300" y="440" as="sourcePoint" />
            <mxPoint x="400" y="340" as="targetPoint" />
          </mxGeometry>
        </mxCell>
        <mxCell id="nQn1hIN5MEKfU32s6l5k-225" value="" style="edgeStyle=entityRelationEdgeStyle;fontSize=12;html=1;endArrow=ERzeroToMany;endFill=1;rounded=0;strokeColor=#007FFF;jumpStyle=sharp;exitX=0;exitY=0.5;exitDx=0;exitDy=0;entryX=1;entryY=0.5;entryDx=0;entryDy=0;" edge="1" parent="1" source="nQn1hIN5MEKfU32s6l5k-223" target="nQn1hIN5MEKfU32s6l5k-212">
          <mxGeometry width="100" height="100" relative="1" as="geometry">
            <mxPoint x="300" y="440" as="sourcePoint" />
            <mxPoint x="470" y="260" as="targetPoint" />
          </mxGeometry>
        </mxCell>
        <mxCell id="nQn1hIN5MEKfU32s6l5k-226" value="has" style="rhombus;whiteSpace=wrap;html=1;strokeColor=#007FFF;strokeWidth=2;" vertex="1" parent="1">
          <mxGeometry x="260" y="410" width="80" height="40" as="geometry" />
        </mxCell>
        <mxCell id="nQn1hIN5MEKfU32s6l5k-227" value="" style="edgeStyle=entityRelationEdgeStyle;fontSize=12;html=1;endArrow=ERone;endFill=1;rounded=0;strokeColor=#007FFF;jumpStyle=sharp;exitX=1;exitY=0.5;exitDx=0;exitDy=0;entryX=0;entryY=1;entryDx=0;entryDy=0;" edge="1" parent="1" source="nQn1hIN5MEKfU32s6l5k-226" target="nQn1hIN5MEKfU32s6l5k-212">
          <mxGeometry width="100" height="100" relative="1" as="geometry">
            <mxPoint x="670" y="380" as="sourcePoint" />
            <mxPoint x="440" y="400" as="targetPoint" />
          </mxGeometry>
        </mxCell>
        <mxCell id="nQn1hIN5MEKfU32s6l5k-228" value="" style="edgeStyle=entityRelationEdgeStyle;fontSize=12;html=1;endArrow=ERoneToMany;rounded=0;strokeColor=#007FFF;jumpStyle=sharp;entryX=1;entryY=0.5;entryDx=0;entryDy=0;exitX=0;exitY=0.5;exitDx=0;exitDy=0;" edge="1" parent="1" source="nQn1hIN5MEKfU32s6l5k-226" target="nQn1hIN5MEKfU32s6l5k-215">
          <mxGeometry width="100" height="100" relative="1" as="geometry">
            <mxPoint x="360" y="440" as="sourcePoint" />
            <mxPoint x="460" y="340" as="targetPoint" />
          </mxGeometry>
        </mxCell>
        <mxCell id="nQn1hIN5MEKfU32s6l5k-229" value="contains" style="rhombus;whiteSpace=wrap;html=1;strokeColor=#007FFF;strokeWidth=2;" vertex="1" parent="1">
          <mxGeometry x="250" y="580" width="80" height="40" as="geometry" />
        </mxCell>
        <mxCell id="nQn1hIN5MEKfU32s6l5k-230" value="" style="edgeStyle=entityRelationEdgeStyle;fontSize=12;html=1;endArrow=ERoneToMany;rounded=0;strokeColor=#007FFF;jumpStyle=sharp;exitX=0.5;exitY=0;exitDx=0;exitDy=0;" edge="1" parent="1" source="nQn1hIN5MEKfU32s6l5k-229">
          <mxGeometry width="100" height="100" relative="1" as="geometry">
            <mxPoint x="360" y="490" as="sourcePoint" />
            <mxPoint x="130" y="520" as="targetPoint" />
          </mxGeometry>
        </mxCell>
        <mxCell id="nQn1hIN5MEKfU32s6l5k-231" value="" style="edgeStyle=entityRelationEdgeStyle;fontSize=12;html=1;endArrow=ERone;endFill=1;rounded=0;strokeColor=#007FFF;jumpStyle=sharp;entryX=0;entryY=0.75;entryDx=0;entryDy=0;exitX=1;exitY=0.5;exitDx=0;exitDy=0;" edge="1" parent="1" source="nQn1hIN5MEKfU32s6l5k-229" target="nQn1hIN5MEKfU32s6l5k-216">
          <mxGeometry width="100" height="100" relative="1" as="geometry">
            <mxPoint x="360" y="490" as="sourcePoint" />
            <mxPoint x="460" y="390" as="targetPoint" />
          </mxGeometry>
        </mxCell>
        <mxCell id="nQn1hIN5MEKfU32s6l5k-232" value="&lt;font style=&quot;font-size: 10px;&quot;&gt;employee_id&lt;/font&gt;" style="ellipse;whiteSpace=wrap;html=1;strokeColor=#000000;strokeWidth=1;" vertex="1" parent="1">
          <mxGeometry x="20" y="210" width="70" height="20" as="geometry" />
        </mxCell>
        <mxCell id="nQn1hIN5MEKfU32s6l5k-233" value="&lt;font style=&quot;font-size: 10px;&quot;&gt;first_name&lt;/font&gt;" style="ellipse;whiteSpace=wrap;html=1;strokeColor=#000000;strokeWidth=1;" vertex="1" parent="1">
          <mxGeometry x="10" y="240" width="70" height="20" as="geometry" />
        </mxCell>
        <mxCell id="nQn1hIN5MEKfU32s6l5k-234" value="&lt;font style=&quot;font-size: 10px;&quot;&gt;last_name&lt;/font&gt;" style="ellipse;whiteSpace=wrap;html=1;strokeColor=#000000;strokeWidth=1;" vertex="1" parent="1">
          <mxGeometry x="10" y="270" width="70" height="20" as="geometry" />
        </mxCell>
        <mxCell id="nQn1hIN5MEKfU32s6l5k-235" value="&lt;font style=&quot;font-size: 10px;&quot;&gt;position&lt;/font&gt;" style="ellipse;whiteSpace=wrap;html=1;strokeColor=#000000;strokeWidth=1;" vertex="1" parent="1">
          <mxGeometry x="10" y="330" width="70" height="20" as="geometry" />
        </mxCell>
        <mxCell id="nQn1hIN5MEKfU32s6l5k-236" value="&lt;font style=&quot;font-size: 10px;&quot;&gt;birth_date&lt;/font&gt;" style="ellipse;whiteSpace=wrap;html=1;strokeColor=#000000;strokeWidth=1;" vertex="1" parent="1">
          <mxGeometry x="60" y="380" width="70" height="20" as="geometry" />
        </mxCell>
        <mxCell id="nQn1hIN5MEKfU32s6l5k-237" value="&lt;font style=&quot;font-size: 10px;&quot;&gt;employment_date&lt;/font&gt;" style="ellipse;whiteSpace=wrap;html=1;strokeColor=#000000;strokeWidth=1;" vertex="1" parent="1">
          <mxGeometry x="100" y="400" width="90" height="20" as="geometry" />
        </mxCell>
        <mxCell id="nQn1hIN5MEKfU32s6l5k-238" value="&lt;font style=&quot;font-size: 10px;&quot;&gt;manager_id&lt;/font&gt;" style="ellipse;whiteSpace=wrap;html=1;strokeColor=#000000;strokeWidth=1;dashed=1;" vertex="1" parent="1">
          <mxGeometry x="200" y="360" width="70" height="20" as="geometry" />
        </mxCell>
        <mxCell id="nQn1hIN5MEKfU32s6l5k-239" value="" style="endArrow=none;html=1;rounded=0;strokeColor=#000000;fontSize=10;jumpStyle=sharp;exitX=1;exitY=0.5;exitDx=0;exitDy=0;entryX=0.127;entryY=0.03;entryDx=0;entryDy=0;entryPerimeter=0;" edge="1" parent="1" source="nQn1hIN5MEKfU32s6l5k-232" target="nQn1hIN5MEKfU32s6l5k-213">
          <mxGeometry width="50" height="50" relative="1" as="geometry">
            <mxPoint x="390" y="410" as="sourcePoint" />
            <mxPoint x="140" y="260" as="targetPoint" />
          </mxGeometry>
        </mxCell>
        <mxCell id="nQn1hIN5MEKfU32s6l5k-240" value="" style="endArrow=none;html=1;rounded=0;strokeColor=#000000;fontSize=10;jumpStyle=sharp;exitX=1;exitY=0.5;exitDx=0;exitDy=0;entryX=0;entryY=0.75;entryDx=0;entryDy=0;" edge="1" parent="1" source="nQn1hIN5MEKfU32s6l5k-233" target="nQn1hIN5MEKfU32s6l5k-213">
          <mxGeometry width="50" height="50" relative="1" as="geometry">
            <mxPoint x="390" y="410" as="sourcePoint" />
            <mxPoint x="440" y="360" as="targetPoint" />
          </mxGeometry>
        </mxCell>
        <mxCell id="nQn1hIN5MEKfU32s6l5k-241" value="" style="endArrow=none;html=1;rounded=0;strokeColor=#000000;fontSize=10;jumpStyle=sharp;entryX=1;entryY=0.5;entryDx=0;entryDy=0;exitX=0;exitY=1;exitDx=0;exitDy=0;" edge="1" parent="1" source="nQn1hIN5MEKfU32s6l5k-213" target="nQn1hIN5MEKfU32s6l5k-234">
          <mxGeometry width="50" height="50" relative="1" as="geometry">
            <mxPoint x="390" y="410" as="sourcePoint" />
            <mxPoint x="440" y="360" as="targetPoint" />
          </mxGeometry>
        </mxCell>
        <mxCell id="nQn1hIN5MEKfU32s6l5k-242" value="" style="endArrow=none;html=1;rounded=0;strokeColor=#000000;fontSize=10;jumpStyle=sharp;entryX=1;entryY=0.5;entryDx=0;entryDy=0;exitX=0.25;exitY=1;exitDx=0;exitDy=0;" edge="1" parent="1" source="nQn1hIN5MEKfU32s6l5k-213" target="nQn1hIN5MEKfU32s6l5k-235">
          <mxGeometry width="50" height="50" relative="1" as="geometry">
            <mxPoint x="390" y="410" as="sourcePoint" />
            <mxPoint x="440" y="360" as="targetPoint" />
          </mxGeometry>
        </mxCell>
        <mxCell id="nQn1hIN5MEKfU32s6l5k-243" value="" style="endArrow=none;html=1;rounded=0;strokeColor=#000000;fontSize=10;jumpStyle=sharp;exitX=1;exitY=0;exitDx=0;exitDy=0;entryX=0.367;entryY=1.19;entryDx=0;entryDy=0;entryPerimeter=0;" edge="1" parent="1" source="nQn1hIN5MEKfU32s6l5k-236" target="nQn1hIN5MEKfU32s6l5k-213">
          <mxGeometry width="50" height="50" relative="1" as="geometry">
            <mxPoint x="390" y="410" as="sourcePoint" />
            <mxPoint x="440" y="360" as="targetPoint" />
          </mxGeometry>
        </mxCell>
        <mxCell id="nQn1hIN5MEKfU32s6l5k-244" value="" style="endArrow=none;html=1;rounded=0;strokeColor=#000000;fontSize=10;jumpStyle=sharp;exitX=0.5;exitY=0;exitDx=0;exitDy=0;entryX=0.38;entryY=1.15;entryDx=0;entryDy=0;entryPerimeter=0;" edge="1" parent="1" source="nQn1hIN5MEKfU32s6l5k-237" target="nQn1hIN5MEKfU32s6l5k-213">
          <mxGeometry width="50" height="50" relative="1" as="geometry">
            <mxPoint x="390" y="410" as="sourcePoint" />
            <mxPoint x="440" y="360" as="targetPoint" />
          </mxGeometry>
        </mxCell>
        <mxCell id="nQn1hIN5MEKfU32s6l5k-245" value="" style="endArrow=none;html=1;rounded=0;strokeColor=#000000;fontSize=10;jumpStyle=sharp;exitX=0.5;exitY=0;exitDx=0;exitDy=0;entryX=0.5;entryY=1;entryDx=0;entryDy=0;" edge="1" parent="1" source="nQn1hIN5MEKfU32s6l5k-238" target="nQn1hIN5MEKfU32s6l5k-213">
          <mxGeometry width="50" height="50" relative="1" as="geometry">
            <mxPoint x="390" y="410" as="sourcePoint" />
            <mxPoint x="440" y="360" as="targetPoint" />
          </mxGeometry>
        </mxCell>
        <mxCell id="nQn1hIN5MEKfU32s6l5k-246" value="&lt;font style=&quot;font-size: 10px;&quot;&gt;user_name&lt;/font&gt;" style="ellipse;whiteSpace=wrap;html=1;strokeColor=#000000;strokeWidth=1;" vertex="1" parent="1">
          <mxGeometry x="10" y="300" width="70" height="20" as="geometry" />
        </mxCell>
        <mxCell id="nQn1hIN5MEKfU32s6l5k-247" value="&lt;font style=&quot;font-size: 10px;&quot;&gt;salary&lt;/font&gt;" style="ellipse;whiteSpace=wrap;html=1;strokeColor=#000000;strokeWidth=1;" vertex="1" parent="1">
          <mxGeometry x="20" y="360" width="70" height="20" as="geometry" />
        </mxCell>
        <mxCell id="nQn1hIN5MEKfU32s6l5k-248" value="" style="endArrow=none;html=1;rounded=0;strokeColor=#000000;fontSize=10;jumpStyle=sharp;entryX=1;entryY=0.5;entryDx=0;entryDy=0;" edge="1" parent="1" target="nQn1hIN5MEKfU32s6l5k-246">
          <mxGeometry width="50" height="50" relative="1" as="geometry">
            <mxPoint x="150" y="290" as="sourcePoint" />
            <mxPoint x="440" y="360" as="targetPoint" />
          </mxGeometry>
        </mxCell>
        <mxCell id="nQn1hIN5MEKfU32s6l5k-249" value="" style="endArrow=none;html=1;rounded=0;strokeColor=#000000;fontSize=10;jumpStyle=sharp;exitX=1;exitY=0;exitDx=0;exitDy=0;entryX=0.38;entryY=1.03;entryDx=0;entryDy=0;entryPerimeter=0;" edge="1" parent="1" source="nQn1hIN5MEKfU32s6l5k-247" target="nQn1hIN5MEKfU32s6l5k-213">
          <mxGeometry width="50" height="50" relative="1" as="geometry">
            <mxPoint x="390" y="410" as="sourcePoint" />
            <mxPoint x="440" y="360" as="targetPoint" />
          </mxGeometry>
        </mxCell>
        <mxCell id="nQn1hIN5MEKfU32s6l5k-250" value="&lt;font style=&quot;font-size: 10px;&quot;&gt;email&lt;/font&gt;" style="ellipse;whiteSpace=wrap;html=1;strokeColor=#000000;strokeWidth=1;" vertex="1" parent="1">
          <mxGeometry x="180" y="390" width="70" height="20" as="geometry" />
        </mxCell>
        <mxCell id="nQn1hIN5MEKfU32s6l5k-251" value="" style="endArrow=none;html=1;rounded=0;strokeColor=#000000;fontSize=10;jumpStyle=sharp;entryX=0;entryY=0;entryDx=0;entryDy=0;exitX=0.5;exitY=1;exitDx=0;exitDy=0;" edge="1" parent="1" source="nQn1hIN5MEKfU32s6l5k-213" target="nQn1hIN5MEKfU32s6l5k-250">
          <mxGeometry width="50" height="50" relative="1" as="geometry">
            <mxPoint x="390" y="410" as="sourcePoint" />
            <mxPoint x="440" y="360" as="targetPoint" />
          </mxGeometry>
        </mxCell>
        <mxCell id="nQn1hIN5MEKfU32s6l5k-252" value="&lt;font style=&quot;font-size: 10px;&quot;&gt;invoice_id&lt;/font&gt;" style="ellipse;whiteSpace=wrap;html=1;strokeColor=#000000;strokeWidth=1;" vertex="1" parent="1">
          <mxGeometry x="289" y="220" width="70" height="20" as="geometry" />
        </mxCell>
        <mxCell id="nQn1hIN5MEKfU32s6l5k-253" value="&lt;font style=&quot;font-size: 10px;&quot;&gt;employee_id&lt;/font&gt;" style="ellipse;whiteSpace=wrap;html=1;strokeColor=#000000;strokeWidth=1;" vertex="1" parent="1">
          <mxGeometry x="339" y="200" width="70" height="20" as="geometry" />
        </mxCell>
        <mxCell id="nQn1hIN5MEKfU32s6l5k-254" value="&lt;font style=&quot;font-size: 10px;&quot;&gt;customer_id&lt;/font&gt;" style="ellipse;whiteSpace=wrap;html=1;strokeColor=#000000;strokeWidth=1;" vertex="1" parent="1">
          <mxGeometry x="389" y="220" width="70" height="20" as="geometry" />
        </mxCell>
        <mxCell id="nQn1hIN5MEKfU32s6l5k-255" value="&lt;font style=&quot;font-size: 10px;&quot;&gt;payment_method&lt;/font&gt;" style="ellipse;whiteSpace=wrap;html=1;strokeColor=#000000;strokeWidth=1;" vertex="1" parent="1">
          <mxGeometry x="449" y="200" width="90" height="20" as="geometry" />
        </mxCell>
        <mxCell id="nQn1hIN5MEKfU32s6l5k-256" value="&lt;font style=&quot;font-size: 10px;&quot;&gt;transaction_moment&lt;/font&gt;" style="ellipse;whiteSpace=wrap;html=1;strokeColor=#000000;strokeWidth=1;" vertex="1" parent="1">
          <mxGeometry x="500" y="220" width="110" height="20" as="geometry" />
        </mxCell>
        <mxCell id="nQn1hIN5MEKfU32s6l5k-257" value="&lt;font style=&quot;font-size: 10px;&quot;&gt;status&lt;/font&gt;" style="ellipse;whiteSpace=wrap;html=1;strokeColor=#000000;strokeWidth=1;" vertex="1" parent="1">
          <mxGeometry x="550" y="250" width="70" height="20" as="geometry" />
        </mxCell>
        <mxCell id="nQn1hIN5MEKfU32s6l5k-258" value="" style="endArrow=none;html=1;rounded=0;strokeColor=#000000;fontSize=10;jumpStyle=sharp;entryX=0.5;entryY=1;entryDx=0;entryDy=0;exitX=0;exitY=0;exitDx=0;exitDy=0;" edge="1" parent="1" source="nQn1hIN5MEKfU32s6l5k-212" target="nQn1hIN5MEKfU32s6l5k-252">
          <mxGeometry width="50" height="50" relative="1" as="geometry">
            <mxPoint x="390" y="410" as="sourcePoint" />
            <mxPoint x="440" y="360" as="targetPoint" />
          </mxGeometry>
        </mxCell>
        <mxCell id="nQn1hIN5MEKfU32s6l5k-259" value="" style="endArrow=none;html=1;rounded=0;strokeColor=#000000;fontSize=10;jumpStyle=sharp;exitX=0.5;exitY=1;exitDx=0;exitDy=0;entryX=0.25;entryY=0;entryDx=0;entryDy=0;" edge="1" parent="1" source="nQn1hIN5MEKfU32s6l5k-253" target="nQn1hIN5MEKfU32s6l5k-212">
          <mxGeometry width="50" height="50" relative="1" as="geometry">
            <mxPoint x="390" y="410" as="sourcePoint" />
            <mxPoint x="440" y="360" as="targetPoint" />
          </mxGeometry>
        </mxCell>
        <mxCell id="nQn1hIN5MEKfU32s6l5k-260" value="" style="endArrow=none;html=1;rounded=0;strokeColor=#000000;fontSize=10;jumpStyle=sharp;exitX=0.5;exitY=1;exitDx=0;exitDy=0;" edge="1" parent="1" source="nQn1hIN5MEKfU32s6l5k-254" target="nQn1hIN5MEKfU32s6l5k-212">
          <mxGeometry width="50" height="50" relative="1" as="geometry">
            <mxPoint x="390" y="410" as="sourcePoint" />
            <mxPoint x="430" y="330" as="targetPoint" />
          </mxGeometry>
        </mxCell>
        <mxCell id="nQn1hIN5MEKfU32s6l5k-261" value="" style="endArrow=none;html=1;rounded=0;strokeColor=#000000;fontSize=10;jumpStyle=sharp;entryX=0.633;entryY=0.01;entryDx=0;entryDy=0;entryPerimeter=0;" edge="1" parent="1" source="nQn1hIN5MEKfU32s6l5k-255" target="nQn1hIN5MEKfU32s6l5k-212">
          <mxGeometry width="50" height="50" relative="1" as="geometry">
            <mxPoint x="390" y="410" as="sourcePoint" />
            <mxPoint x="440" y="360" as="targetPoint" />
          </mxGeometry>
        </mxCell>
        <mxCell id="nQn1hIN5MEKfU32s6l5k-262" value="" style="endArrow=none;html=1;rounded=0;strokeColor=#000000;fontSize=10;jumpStyle=sharp;entryX=0.75;entryY=0;entryDx=0;entryDy=0;exitX=0;exitY=1;exitDx=0;exitDy=0;" edge="1" parent="1" source="nQn1hIN5MEKfU32s6l5k-256" target="nQn1hIN5MEKfU32s6l5k-212">
          <mxGeometry width="50" height="50" relative="1" as="geometry">
            <mxPoint x="390" y="410" as="sourcePoint" />
            <mxPoint x="440" y="360" as="targetPoint" />
          </mxGeometry>
        </mxCell>
        <mxCell id="nQn1hIN5MEKfU32s6l5k-263" value="" style="endArrow=none;html=1;rounded=0;strokeColor=#000000;fontSize=10;jumpStyle=sharp;entryX=0.75;entryY=0;entryDx=0;entryDy=0;exitX=0;exitY=0.5;exitDx=0;exitDy=0;" edge="1" parent="1" source="nQn1hIN5MEKfU32s6l5k-257" target="nQn1hIN5MEKfU32s6l5k-212">
          <mxGeometry width="50" height="50" relative="1" as="geometry">
            <mxPoint x="550" y="270" as="sourcePoint" />
            <mxPoint x="440" y="360" as="targetPoint" />
          </mxGeometry>
        </mxCell>
        <mxCell id="nQn1hIN5MEKfU32s6l5k-264" value="&lt;font style=&quot;font-size: 10px;&quot;&gt;customer_id&lt;/font&gt;" style="ellipse;whiteSpace=wrap;html=1;strokeColor=#000000;strokeWidth=1;" vertex="1" parent="1">
          <mxGeometry x="655" y="210" width="70" height="20" as="geometry" />
        </mxCell>
        <mxCell id="nQn1hIN5MEKfU32s6l5k-265" value="&lt;font style=&quot;font-size: 10px;&quot;&gt;first_name&lt;/font&gt;" style="ellipse;whiteSpace=wrap;html=1;strokeColor=#000000;strokeWidth=1;" vertex="1" parent="1">
          <mxGeometry x="720" y="220" width="70" height="20" as="geometry" />
        </mxCell>
        <mxCell id="nQn1hIN5MEKfU32s6l5k-266" value="&lt;font style=&quot;font-size: 10px;&quot;&gt;last_name&lt;/font&gt;" style="ellipse;whiteSpace=wrap;html=1;strokeColor=#000000;strokeWidth=1;" vertex="1" parent="1">
          <mxGeometry x="757" y="240" width="70" height="20" as="geometry" />
        </mxCell>
        <mxCell id="nQn1hIN5MEKfU32s6l5k-267" value="&lt;font style=&quot;font-size: 10px;&quot;&gt;birth_date&lt;/font&gt;" style="ellipse;whiteSpace=wrap;html=1;strokeColor=#000000;strokeWidth=1;" vertex="1" parent="1">
          <mxGeometry x="750" y="300" width="70" height="20" as="geometry" />
        </mxCell>
        <mxCell id="nQn1hIN5MEKfU32s6l5k-268" value="&lt;font style=&quot;font-size: 10px;&quot;&gt;phone_number&lt;/font&gt;" style="ellipse;whiteSpace=wrap;html=1;strokeColor=#000000;strokeWidth=1;" vertex="1" parent="1">
          <mxGeometry x="745" y="330" width="80" height="20" as="geometry" />
        </mxCell>
        <mxCell id="nQn1hIN5MEKfU32s6l5k-269" value="&lt;font style=&quot;font-size: 10px;&quot;&gt;email&lt;/font&gt;" style="ellipse;whiteSpace=wrap;html=1;strokeColor=#000000;strokeWidth=1;" vertex="1" parent="1">
          <mxGeometry x="730" y="360" width="70" height="20" as="geometry" />
        </mxCell>
        <mxCell id="nQn1hIN5MEKfU32s6l5k-270" value="&lt;font style=&quot;font-size: 10px;&quot;&gt;discount&lt;/font&gt;" style="ellipse;whiteSpace=wrap;html=1;strokeColor=#000000;strokeWidth=1;dashed=1;" vertex="1" parent="1">
          <mxGeometry x="690" y="380" width="70" height="20" as="geometry" />
        </mxCell>
        <mxCell id="nQn1hIN5MEKfU32s6l5k-271" value="Address" style="rounded=0;whiteSpace=wrap;html=1;strokeColor=#FF0000;strokeWidth=2;" vertex="1" parent="1">
          <mxGeometry x="650" y="450" width="60" height="20" as="geometry" />
        </mxCell>
        <mxCell id="nQn1hIN5MEKfU32s6l5k-272" value="has" style="rhombus;whiteSpace=wrap;html=1;strokeColor=#007FFF;strokeWidth=2;" vertex="1" parent="1">
          <mxGeometry x="550" y="370" width="80" height="40" as="geometry" />
        </mxCell>
        <mxCell id="nQn1hIN5MEKfU32s6l5k-273" value="" style="edgeStyle=entityRelationEdgeStyle;fontSize=12;html=1;endArrow=ERone;endFill=1;rounded=0;strokeColor=#007FFF;jumpStyle=sharp;entryX=0;entryY=1;entryDx=0;entryDy=0;exitX=1;exitY=0.5;exitDx=0;exitDy=0;" edge="1" parent="1" source="nQn1hIN5MEKfU32s6l5k-272" target="nQn1hIN5MEKfU32s6l5k-214">
          <mxGeometry width="100" height="100" relative="1" as="geometry">
            <mxPoint x="360" y="440" as="sourcePoint" />
            <mxPoint x="460" y="340" as="targetPoint" />
          </mxGeometry>
        </mxCell>
        <mxCell id="nQn1hIN5MEKfU32s6l5k-274" value="" style="edgeStyle=entityRelationEdgeStyle;fontSize=12;html=1;endArrow=ERzeroToOne;endFill=1;rounded=0;strokeColor=#007FFF;jumpStyle=sharp;entryX=0;entryY=0.5;entryDx=0;entryDy=0;exitX=0.5;exitY=1;exitDx=0;exitDy=0;" edge="1" parent="1" source="nQn1hIN5MEKfU32s6l5k-272" target="nQn1hIN5MEKfU32s6l5k-271">
          <mxGeometry width="100" height="100" relative="1" as="geometry">
            <mxPoint x="360" y="440" as="sourcePoint" />
            <mxPoint x="460" y="340" as="targetPoint" />
          </mxGeometry>
        </mxCell>
        <mxCell id="nQn1hIN5MEKfU32s6l5k-275" value="" style="endArrow=none;html=1;rounded=0;strokeColor=#000000;fontSize=10;jumpStyle=sharp;entryX=0.5;entryY=1;entryDx=0;entryDy=0;exitX=0.5;exitY=0;exitDx=0;exitDy=0;" edge="1" parent="1" source="nQn1hIN5MEKfU32s6l5k-214" target="nQn1hIN5MEKfU32s6l5k-264">
          <mxGeometry width="50" height="50" relative="1" as="geometry">
            <mxPoint x="390" y="410" as="sourcePoint" />
            <mxPoint x="440" y="360" as="targetPoint" />
          </mxGeometry>
        </mxCell>
        <mxCell id="nQn1hIN5MEKfU32s6l5k-276" value="" style="endArrow=none;html=1;rounded=0;strokeColor=#000000;fontSize=10;jumpStyle=sharp;entryX=0;entryY=1;entryDx=0;entryDy=0;exitX=0.75;exitY=0;exitDx=0;exitDy=0;" edge="1" parent="1" source="nQn1hIN5MEKfU32s6l5k-214" target="nQn1hIN5MEKfU32s6l5k-265">
          <mxGeometry width="50" height="50" relative="1" as="geometry">
            <mxPoint x="390" y="410" as="sourcePoint" />
            <mxPoint x="440" y="360" as="targetPoint" />
          </mxGeometry>
        </mxCell>
        <mxCell id="nQn1hIN5MEKfU32s6l5k-277" value="" style="endArrow=none;html=1;rounded=0;strokeColor=#000000;fontSize=10;jumpStyle=sharp;entryX=0;entryY=0.5;entryDx=0;entryDy=0;exitX=1;exitY=0;exitDx=0;exitDy=0;" edge="1" parent="1" source="nQn1hIN5MEKfU32s6l5k-214" target="nQn1hIN5MEKfU32s6l5k-266">
          <mxGeometry width="50" height="50" relative="1" as="geometry">
            <mxPoint x="390" y="410" as="sourcePoint" />
            <mxPoint x="440" y="360" as="targetPoint" />
          </mxGeometry>
        </mxCell>
        <mxCell id="nQn1hIN5MEKfU32s6l5k-278" value="" style="endArrow=none;html=1;rounded=0;strokeColor=#000000;fontSize=10;jumpStyle=sharp;entryX=0;entryY=0.5;entryDx=0;entryDy=0;exitX=1;exitY=0.75;exitDx=0;exitDy=0;" edge="1" parent="1" source="nQn1hIN5MEKfU32s6l5k-214" target="nQn1hIN5MEKfU32s6l5k-267">
          <mxGeometry width="50" height="50" relative="1" as="geometry">
            <mxPoint x="390" y="410" as="sourcePoint" />
            <mxPoint x="440" y="360" as="targetPoint" />
          </mxGeometry>
        </mxCell>
        <mxCell id="nQn1hIN5MEKfU32s6l5k-279" value="" style="endArrow=none;html=1;rounded=0;strokeColor=#000000;fontSize=10;jumpStyle=sharp;entryX=0;entryY=0.5;entryDx=0;entryDy=0;exitX=1;exitY=1;exitDx=0;exitDy=0;" edge="1" parent="1" source="nQn1hIN5MEKfU32s6l5k-214" target="nQn1hIN5MEKfU32s6l5k-268">
          <mxGeometry width="50" height="50" relative="1" as="geometry">
            <mxPoint x="390" y="410" as="sourcePoint" />
            <mxPoint x="440" y="360" as="targetPoint" />
          </mxGeometry>
        </mxCell>
        <mxCell id="nQn1hIN5MEKfU32s6l5k-280" value="" style="endArrow=none;html=1;rounded=0;strokeColor=#000000;fontSize=10;jumpStyle=sharp;exitX=0;exitY=0.5;exitDx=0;exitDy=0;entryX=0.75;entryY=1;entryDx=0;entryDy=0;" edge="1" parent="1" source="nQn1hIN5MEKfU32s6l5k-269" target="nQn1hIN5MEKfU32s6l5k-214">
          <mxGeometry width="50" height="50" relative="1" as="geometry">
            <mxPoint x="390" y="410" as="sourcePoint" />
            <mxPoint x="440" y="360" as="targetPoint" />
          </mxGeometry>
        </mxCell>
        <mxCell id="nQn1hIN5MEKfU32s6l5k-281" value="" style="endArrow=none;html=1;rounded=0;strokeColor=#000000;fontSize=10;jumpStyle=sharp;exitX=0.354;exitY=0.09;exitDx=0;exitDy=0;exitPerimeter=0;entryX=0.75;entryY=1;entryDx=0;entryDy=0;" edge="1" parent="1" source="nQn1hIN5MEKfU32s6l5k-270" target="nQn1hIN5MEKfU32s6l5k-214">
          <mxGeometry width="50" height="50" relative="1" as="geometry">
            <mxPoint x="390" y="410" as="sourcePoint" />
            <mxPoint x="440" y="360" as="targetPoint" />
          </mxGeometry>
        </mxCell>
        <mxCell id="nQn1hIN5MEKfU32s6l5k-282" value="&lt;font style=&quot;font-size: 10px;&quot;&gt;address_id&lt;/font&gt;" style="ellipse;whiteSpace=wrap;html=1;strokeColor=#000000;strokeWidth=1;" vertex="1" parent="1">
          <mxGeometry x="580" y="510" width="70" height="20" as="geometry" />
        </mxCell>
        <mxCell id="nQn1hIN5MEKfU32s6l5k-283" value="&lt;font style=&quot;font-size: 10px;&quot;&gt;customer_id&lt;/font&gt;" style="ellipse;whiteSpace=wrap;html=1;strokeColor=#000000;strokeWidth=1;" vertex="1" parent="1">
          <mxGeometry x="610" y="540" width="70" height="20" as="geometry" />
        </mxCell>
        <mxCell id="nQn1hIN5MEKfU32s6l5k-284" value="&lt;font style=&quot;font-size: 10px;&quot;&gt;country&lt;/font&gt;" style="ellipse;whiteSpace=wrap;html=1;strokeColor=#000000;strokeWidth=1;" vertex="1" parent="1">
          <mxGeometry x="660" y="560" width="70" height="20" as="geometry" />
        </mxCell>
        <mxCell id="nQn1hIN5MEKfU32s6l5k-285" value="&lt;font style=&quot;font-size: 10px;&quot;&gt;city&lt;/font&gt;" style="ellipse;whiteSpace=wrap;html=1;strokeColor=#000000;strokeWidth=1;" vertex="1" parent="1">
          <mxGeometry x="740" y="510" width="70" height="20" as="geometry" />
        </mxCell>
        <mxCell id="nQn1hIN5MEKfU32s6l5k-286" value="&lt;font style=&quot;font-size: 10px;&quot;&gt;street&lt;/font&gt;" style="ellipse;whiteSpace=wrap;html=1;strokeColor=#000000;strokeWidth=1;" vertex="1" parent="1">
          <mxGeometry x="755" y="480" width="70" height="20" as="geometry" />
        </mxCell>
        <mxCell id="nQn1hIN5MEKfU32s6l5k-287" value="&lt;font style=&quot;font-size: 10px;&quot;&gt;region&lt;/font&gt;" style="ellipse;whiteSpace=wrap;html=1;strokeColor=#000000;strokeWidth=1;" vertex="1" parent="1">
          <mxGeometry x="710" y="540" width="70" height="20" as="geometry" />
        </mxCell>
        <mxCell id="nQn1hIN5MEKfU32s6l5k-288" value="&lt;font style=&quot;font-size: 10px;&quot;&gt;building_nomber&lt;/font&gt;" style="ellipse;whiteSpace=wrap;html=1;strokeColor=#000000;strokeWidth=1;dashed=1;" vertex="1" parent="1">
          <mxGeometry x="740" y="450" width="85" height="20" as="geometry" />
        </mxCell>
        <mxCell id="nQn1hIN5MEKfU32s6l5k-289" value="" style="endArrow=none;html=1;rounded=0;strokeColor=#000000;fontSize=10;jumpStyle=sharp;entryX=0.5;entryY=0;entryDx=0;entryDy=0;exitX=0;exitY=1;exitDx=0;exitDy=0;" edge="1" parent="1" source="nQn1hIN5MEKfU32s6l5k-271" target="nQn1hIN5MEKfU32s6l5k-282">
          <mxGeometry width="50" height="50" relative="1" as="geometry">
            <mxPoint x="390" y="410" as="sourcePoint" />
            <mxPoint x="440" y="360" as="targetPoint" />
          </mxGeometry>
        </mxCell>
        <mxCell id="nQn1hIN5MEKfU32s6l5k-290" value="" style="endArrow=none;html=1;rounded=0;strokeColor=#000000;fontSize=10;jumpStyle=sharp;entryX=0.766;entryY=0.17;entryDx=0;entryDy=0;entryPerimeter=0;exitX=0.25;exitY=1;exitDx=0;exitDy=0;" edge="1" parent="1" source="nQn1hIN5MEKfU32s6l5k-271" target="nQn1hIN5MEKfU32s6l5k-283">
          <mxGeometry width="50" height="50" relative="1" as="geometry">
            <mxPoint x="390" y="410" as="sourcePoint" />
            <mxPoint x="440" y="360" as="targetPoint" />
          </mxGeometry>
        </mxCell>
        <mxCell id="nQn1hIN5MEKfU32s6l5k-291" value="" style="endArrow=none;html=1;rounded=0;strokeColor=#000000;fontSize=10;jumpStyle=sharp;exitX=0.5;exitY=0;exitDx=0;exitDy=0;entryX=0.5;entryY=1;entryDx=0;entryDy=0;" edge="1" parent="1" source="nQn1hIN5MEKfU32s6l5k-284" target="nQn1hIN5MEKfU32s6l5k-271">
          <mxGeometry width="50" height="50" relative="1" as="geometry">
            <mxPoint x="390" y="410" as="sourcePoint" />
            <mxPoint x="440" y="360" as="targetPoint" />
          </mxGeometry>
        </mxCell>
        <mxCell id="nQn1hIN5MEKfU32s6l5k-292" value="" style="endArrow=none;html=1;rounded=0;strokeColor=#000000;fontSize=10;jumpStyle=sharp;exitX=0.286;exitY=0;exitDx=0;exitDy=0;exitPerimeter=0;entryX=0.75;entryY=1;entryDx=0;entryDy=0;" edge="1" parent="1" source="nQn1hIN5MEKfU32s6l5k-287" target="nQn1hIN5MEKfU32s6l5k-271">
          <mxGeometry width="50" height="50" relative="1" as="geometry">
            <mxPoint x="390" y="410" as="sourcePoint" />
            <mxPoint x="690" y="480" as="targetPoint" />
          </mxGeometry>
        </mxCell>
        <mxCell id="nQn1hIN5MEKfU32s6l5k-293" value="" style="endArrow=none;html=1;rounded=0;strokeColor=#000000;fontSize=10;jumpStyle=sharp;" edge="1" parent="1" source="nQn1hIN5MEKfU32s6l5k-285">
          <mxGeometry width="50" height="50" relative="1" as="geometry">
            <mxPoint x="390" y="410" as="sourcePoint" />
            <mxPoint x="700" y="470" as="targetPoint" />
          </mxGeometry>
        </mxCell>
        <mxCell id="nQn1hIN5MEKfU32s6l5k-294" value="" style="endArrow=none;html=1;rounded=0;strokeColor=#000000;fontSize=10;jumpStyle=sharp;exitX=0;exitY=0.5;exitDx=0;exitDy=0;" edge="1" parent="1" source="nQn1hIN5MEKfU32s6l5k-286">
          <mxGeometry width="50" height="50" relative="1" as="geometry">
            <mxPoint x="390" y="410" as="sourcePoint" />
            <mxPoint x="710" y="470" as="targetPoint" />
          </mxGeometry>
        </mxCell>
        <mxCell id="nQn1hIN5MEKfU32s6l5k-295" value="" style="endArrow=none;html=1;rounded=0;strokeColor=#000000;fontSize=10;jumpStyle=sharp;exitX=0;exitY=0.5;exitDx=0;exitDy=0;entryX=1;entryY=0.5;entryDx=0;entryDy=0;" edge="1" parent="1" source="nQn1hIN5MEKfU32s6l5k-288" target="nQn1hIN5MEKfU32s6l5k-271">
          <mxGeometry width="50" height="50" relative="1" as="geometry">
            <mxPoint x="390" y="410" as="sourcePoint" />
            <mxPoint x="440" y="360" as="targetPoint" />
          </mxGeometry>
        </mxCell>
        <mxCell id="nQn1hIN5MEKfU32s6l5k-296" value="&lt;font style=&quot;font-size: 10px;&quot;&gt;order_id&lt;/font&gt;" style="ellipse;whiteSpace=wrap;html=1;strokeColor=#000000;strokeWidth=1;" vertex="1" parent="1">
          <mxGeometry x="20" y="470" width="70" height="20" as="geometry" />
        </mxCell>
        <mxCell id="nQn1hIN5MEKfU32s6l5k-297" value="&lt;font style=&quot;font-size: 10px;&quot;&gt;invoice_id&lt;/font&gt;" style="ellipse;whiteSpace=wrap;html=1;strokeColor=#000000;strokeWidth=1;" vertex="1" parent="1">
          <mxGeometry x="10" y="500" width="70" height="20" as="geometry" />
        </mxCell>
        <mxCell id="nQn1hIN5MEKfU32s6l5k-298" value="&lt;font style=&quot;font-size: 10px;&quot;&gt;product_id&lt;/font&gt;" style="ellipse;whiteSpace=wrap;html=1;strokeColor=#000000;strokeWidth=1;" vertex="1" parent="1">
          <mxGeometry x="10" y="530" width="70" height="20" as="geometry" />
        </mxCell>
        <mxCell id="nQn1hIN5MEKfU32s6l5k-299" value="&lt;font style=&quot;font-size: 10px;&quot;&gt;order_moment&lt;/font&gt;" style="ellipse;whiteSpace=wrap;html=1;strokeColor=#000000;strokeWidth=1;" vertex="1" parent="1">
          <mxGeometry x="30" y="560" width="80" height="20" as="geometry" />
        </mxCell>
        <mxCell id="nQn1hIN5MEKfU32s6l5k-300" value="&lt;font style=&quot;font-size: 10px;&quot;&gt;amount&lt;/font&gt;" style="ellipse;whiteSpace=wrap;html=1;strokeColor=#000000;strokeWidth=1;" vertex="1" parent="1">
          <mxGeometry x="90" y="580" width="70" height="20" as="geometry" />
        </mxCell>
        <mxCell id="nQn1hIN5MEKfU32s6l5k-301" value="" style="endArrow=none;html=1;rounded=0;strokeColor=#000000;fontSize=10;jumpStyle=sharp;exitX=1;exitY=0.5;exitDx=0;exitDy=0;entryX=0.5;entryY=0;entryDx=0;entryDy=0;" edge="1" parent="1" source="nQn1hIN5MEKfU32s6l5k-296" target="nQn1hIN5MEKfU32s6l5k-215">
          <mxGeometry width="50" height="50" relative="1" as="geometry">
            <mxPoint x="390" y="510" as="sourcePoint" />
            <mxPoint x="440" y="460" as="targetPoint" />
          </mxGeometry>
        </mxCell>
        <mxCell id="nQn1hIN5MEKfU32s6l5k-302" value="" style="endArrow=none;html=1;rounded=0;strokeColor=#000000;fontSize=10;jumpStyle=sharp;exitX=1;exitY=0.5;exitDx=0;exitDy=0;entryX=0;entryY=0;entryDx=0;entryDy=0;" edge="1" parent="1" source="nQn1hIN5MEKfU32s6l5k-297" target="nQn1hIN5MEKfU32s6l5k-215">
          <mxGeometry width="50" height="50" relative="1" as="geometry">
            <mxPoint x="390" y="510" as="sourcePoint" />
            <mxPoint x="440" y="460" as="targetPoint" />
          </mxGeometry>
        </mxCell>
        <mxCell id="nQn1hIN5MEKfU32s6l5k-303" value="" style="endArrow=none;html=1;rounded=0;strokeColor=#000000;fontSize=10;jumpStyle=sharp;exitX=1;exitY=0.5;exitDx=0;exitDy=0;entryX=0.75;entryY=1;entryDx=0;entryDy=0;" edge="1" parent="1" source="nQn1hIN5MEKfU32s6l5k-300" target="nQn1hIN5MEKfU32s6l5k-215">
          <mxGeometry width="50" height="50" relative="1" as="geometry">
            <mxPoint x="390" y="510" as="sourcePoint" />
            <mxPoint x="440" y="460" as="targetPoint" />
          </mxGeometry>
        </mxCell>
        <mxCell id="nQn1hIN5MEKfU32s6l5k-304" value="" style="endArrow=none;html=1;rounded=0;strokeColor=#000000;fontSize=10;jumpStyle=sharp;exitX=1;exitY=0.5;exitDx=0;exitDy=0;entryX=0.75;entryY=1;entryDx=0;entryDy=0;" edge="1" parent="1" source="nQn1hIN5MEKfU32s6l5k-299" target="nQn1hIN5MEKfU32s6l5k-215">
          <mxGeometry width="50" height="50" relative="1" as="geometry">
            <mxPoint x="390" y="510" as="sourcePoint" />
            <mxPoint x="440" y="460" as="targetPoint" />
          </mxGeometry>
        </mxCell>
        <mxCell id="nQn1hIN5MEKfU32s6l5k-305" value="" style="endArrow=none;html=1;rounded=0;strokeColor=#000000;fontSize=10;jumpStyle=sharp;exitX=1;exitY=0.5;exitDx=0;exitDy=0;entryX=0.25;entryY=1;entryDx=0;entryDy=0;" edge="1" parent="1" source="nQn1hIN5MEKfU32s6l5k-298" target="nQn1hIN5MEKfU32s6l5k-215">
          <mxGeometry width="50" height="50" relative="1" as="geometry">
            <mxPoint x="390" y="510" as="sourcePoint" />
            <mxPoint x="440" y="460" as="targetPoint" />
          </mxGeometry>
        </mxCell>
        <mxCell id="nQn1hIN5MEKfU32s6l5k-306" value="&lt;font style=&quot;font-size: 10px;&quot;&gt;product_id&lt;/font&gt;" style="ellipse;whiteSpace=wrap;html=1;strokeColor=#000000;strokeWidth=1;" vertex="1" parent="1">
          <mxGeometry x="385" y="460" width="70" height="20" as="geometry" />
        </mxCell>
        <mxCell id="nQn1hIN5MEKfU32s6l5k-307" value="&lt;font style=&quot;font-size: 10px;&quot;&gt;product_name&lt;/font&gt;" style="ellipse;whiteSpace=wrap;html=1;strokeColor=#000000;strokeWidth=1;" vertex="1" parent="1">
          <mxGeometry x="440" y="480" width="70" height="20" as="geometry" />
        </mxCell>
        <mxCell id="nQn1hIN5MEKfU32s6l5k-308" value="&lt;font style=&quot;font-size: 10px;&quot;&gt;category&lt;/font&gt;" style="ellipse;whiteSpace=wrap;html=1;strokeColor=#000000;strokeWidth=1;" vertex="1" parent="1">
          <mxGeometry x="470" y="510" width="70" height="20" as="geometry" />
        </mxCell>
        <mxCell id="nQn1hIN5MEKfU32s6l5k-309" value="&lt;span style=&quot;font-size: 10px;&quot;&gt;manufacturer&lt;/span&gt;" style="ellipse;whiteSpace=wrap;html=1;strokeColor=#000000;strokeWidth=1;" vertex="1" parent="1">
          <mxGeometry x="490" y="540" width="70" height="20" as="geometry" />
        </mxCell>
        <mxCell id="nQn1hIN5MEKfU32s6l5k-310" value="&lt;font style=&quot;font-size: 10px;&quot;&gt;amount&lt;/font&gt;" style="ellipse;whiteSpace=wrap;html=1;strokeColor=#000000;strokeWidth=1;" vertex="1" parent="1">
          <mxGeometry x="490" y="615" width="70" height="20" as="geometry" />
        </mxCell>
        <mxCell id="nQn1hIN5MEKfU32s6l5k-311" value="&lt;font style=&quot;font-size: 10px;&quot;&gt;price&lt;/font&gt;" style="ellipse;whiteSpace=wrap;html=1;strokeColor=#000000;strokeWidth=1;" vertex="1" parent="1">
          <mxGeometry x="440" y="635" width="70" height="20" as="geometry" />
        </mxCell>
        <mxCell id="nQn1hIN5MEKfU32s6l5k-312" value="&lt;font style=&quot;font-size: 10px;&quot;&gt;product_description&lt;/font&gt;" style="ellipse;whiteSpace=wrap;html=1;strokeColor=#000000;strokeWidth=1;dashed=1;" vertex="1" parent="1">
          <mxGeometry x="340" y="655" width="109" height="20" as="geometry" />
        </mxCell>
        <mxCell id="nQn1hIN5MEKfU32s6l5k-313" value="" style="endArrow=none;html=1;rounded=0;strokeColor=#000000;fontSize=10;jumpStyle=sharp;exitX=0.25;exitY=0;exitDx=0;exitDy=0;entryX=0.5;entryY=1;entryDx=0;entryDy=0;" edge="1" parent="1" source="nQn1hIN5MEKfU32s6l5k-216" target="nQn1hIN5MEKfU32s6l5k-306">
          <mxGeometry width="50" height="50" relative="1" as="geometry">
            <mxPoint x="390" y="510" as="sourcePoint" />
            <mxPoint x="440" y="460" as="targetPoint" />
          </mxGeometry>
        </mxCell>
        <mxCell id="nQn1hIN5MEKfU32s6l5k-314" value="" style="endArrow=none;html=1;rounded=0;strokeColor=#000000;fontSize=10;jumpStyle=sharp;entryX=0;entryY=0.5;entryDx=0;entryDy=0;exitX=0.5;exitY=0;exitDx=0;exitDy=0;" edge="1" parent="1" source="nQn1hIN5MEKfU32s6l5k-216" target="nQn1hIN5MEKfU32s6l5k-307">
          <mxGeometry width="50" height="50" relative="1" as="geometry">
            <mxPoint x="390" y="510" as="sourcePoint" />
            <mxPoint x="440" y="460" as="targetPoint" />
          </mxGeometry>
        </mxCell>
        <mxCell id="nQn1hIN5MEKfU32s6l5k-315" value="" style="endArrow=none;html=1;rounded=0;strokeColor=#000000;fontSize=10;jumpStyle=sharp;exitX=0.75;exitY=0;exitDx=0;exitDy=0;entryX=0;entryY=0.5;entryDx=0;entryDy=0;" edge="1" parent="1" source="nQn1hIN5MEKfU32s6l5k-216" target="nQn1hIN5MEKfU32s6l5k-308">
          <mxGeometry width="50" height="50" relative="1" as="geometry">
            <mxPoint x="390" y="510" as="sourcePoint" />
            <mxPoint x="440" y="460" as="targetPoint" />
          </mxGeometry>
        </mxCell>
        <mxCell id="nQn1hIN5MEKfU32s6l5k-316" value="" style="endArrow=none;html=1;rounded=0;strokeColor=#000000;fontSize=10;jumpStyle=sharp;entryX=0;entryY=0.5;entryDx=0;entryDy=0;exitX=1;exitY=0.25;exitDx=0;exitDy=0;" edge="1" parent="1" source="nQn1hIN5MEKfU32s6l5k-216" target="nQn1hIN5MEKfU32s6l5k-309">
          <mxGeometry width="50" height="50" relative="1" as="geometry">
            <mxPoint x="390" y="510" as="sourcePoint" />
            <mxPoint x="440" y="460" as="targetPoint" />
          </mxGeometry>
        </mxCell>
        <mxCell id="nQn1hIN5MEKfU32s6l5k-317" value="" style="endArrow=none;html=1;rounded=0;strokeColor=#000000;fontSize=10;jumpStyle=sharp;entryX=0;entryY=0.5;entryDx=0;entryDy=0;exitX=1;exitY=1;exitDx=0;exitDy=0;" edge="1" parent="1" source="nQn1hIN5MEKfU32s6l5k-216" target="nQn1hIN5MEKfU32s6l5k-310">
          <mxGeometry width="50" height="50" relative="1" as="geometry">
            <mxPoint x="390" y="510" as="sourcePoint" />
            <mxPoint x="440" y="460" as="targetPoint" />
          </mxGeometry>
        </mxCell>
        <mxCell id="nQn1hIN5MEKfU32s6l5k-318" value="" style="endArrow=none;html=1;rounded=0;strokeColor=#000000;fontSize=10;jumpStyle=sharp;exitX=0;exitY=0.5;exitDx=0;exitDy=0;entryX=0.75;entryY=1;entryDx=0;entryDy=0;" edge="1" parent="1" source="nQn1hIN5MEKfU32s6l5k-311" target="nQn1hIN5MEKfU32s6l5k-216">
          <mxGeometry width="50" height="50" relative="1" as="geometry">
            <mxPoint x="390" y="510" as="sourcePoint" />
            <mxPoint x="440" y="460" as="targetPoint" />
          </mxGeometry>
        </mxCell>
        <mxCell id="nQn1hIN5MEKfU32s6l5k-319" value="" style="endArrow=none;html=1;rounded=0;strokeColor=#000000;fontSize=10;jumpStyle=sharp;exitX=0.266;exitY=0.03;exitDx=0;exitDy=0;exitPerimeter=0;entryX=0.5;entryY=1;entryDx=0;entryDy=0;" edge="1" parent="1" source="nQn1hIN5MEKfU32s6l5k-312" target="nQn1hIN5MEKfU32s6l5k-216">
          <mxGeometry width="50" height="50" relative="1" as="geometry">
            <mxPoint x="390" y="510" as="sourcePoint" />
            <mxPoint x="440" y="460" as="targetPoint" />
          </mxGeometry>
        </mxCell>
        <mxCell id="nQn1hIN5MEKfU32s6l5k-320" value="&lt;font style=&quot;font-size: 10px;&quot;&gt;product_tipe&lt;/font&gt;" style="ellipse;whiteSpace=wrap;html=1;strokeColor=#000000;strokeWidth=1;" vertex="1" parent="1">
          <mxGeometry x="510" y="572.5" width="70" height="27.5" as="geometry" />
        </mxCell>
        <mxCell id="nQn1hIN5MEKfU32s6l5k-321" value="" style="endArrow=none;html=1;rounded=0;strokeColor=#000000;fontSize=10;jumpStyle=sharp;entryX=1;entryY=0.5;entryDx=0;entryDy=0;" edge="1" parent="1" source="nQn1hIN5MEKfU32s6l5k-320" target="nQn1hIN5MEKfU32s6l5k-216">
          <mxGeometry width="50" height="50" relative="1" as="geometry">
            <mxPoint x="390" y="500" as="sourcePoint" />
            <mxPoint x="440" y="450" as="targetPoint" />
          </mxGeometry>
        </mxCell>
        <mxCell id="nQn1hIN5MEKfU32s6l5k-322" value="&lt;font style=&quot;font-size: 10px;&quot;&gt;&lt;font style=&quot;vertical-align: inherit;&quot;&gt;&lt;font style=&quot;vertical-align: inherit;&quot;&gt;gender&lt;/font&gt;&lt;/font&gt;&lt;/font&gt;" style="ellipse;whiteSpace=wrap;html=1;strokeColor=#000000;strokeWidth=1;" vertex="1" parent="1">
          <mxGeometry x="755" y="270" width="70" height="20" as="geometry" />
        </mxCell>
        <mxCell id="nQn1hIN5MEKfU32s6l5k-323" value="&lt;font style=&quot;vertical-align: inherit;&quot;&gt;&lt;font style=&quot;vertical-align: inherit;&quot;&gt;department&lt;/font&gt;&lt;/font&gt;" style="rounded=0;whiteSpace=wrap;html=1;strokeColor=#FF0000;strokeWidth=2;" vertex="1" parent="1">
          <mxGeometry x="455" y="150" width="71" height="20" as="geometry" />
        </mxCell>
        <mxCell id="nQn1hIN5MEKfU32s6l5k-324" value="works for" style="rhombus;whiteSpace=wrap;html=1;strokeColor=#007FFF;strokeWidth=2;" vertex="1" parent="1">
          <mxGeometry x="294" y="140" width="85" height="40" as="geometry" />
        </mxCell>
        <mxCell id="nQn1hIN5MEKfU32s6l5k-325" value="" style="edgeStyle=entityRelationEdgeStyle;fontSize=12;html=1;endArrow=ERzeroToMany;endFill=1;rounded=0;entryX=1;entryY=0;entryDx=0;entryDy=0;strokeColor=#007FFF;" edge="1" parent="1" source="nQn1hIN5MEKfU32s6l5k-324" target="nQn1hIN5MEKfU32s6l5k-213">
          <mxGeometry width="100" height="100" relative="1" as="geometry">
            <mxPoint x="360" y="450" as="sourcePoint" />
            <mxPoint x="460" y="350" as="targetPoint" />
          </mxGeometry>
        </mxCell>
        <mxCell id="nQn1hIN5MEKfU32s6l5k-326" value="" style="edgeStyle=entityRelationEdgeStyle;fontSize=12;html=1;endArrow=ERzeroToOne;endFill=1;rounded=0;entryX=0;entryY=0.75;entryDx=0;entryDy=0;exitX=1;exitY=0.5;exitDx=0;exitDy=0;strokeColor=#007FFF;" edge="1" parent="1" source="nQn1hIN5MEKfU32s6l5k-324" target="nQn1hIN5MEKfU32s6l5k-323">
          <mxGeometry width="100" height="100" relative="1" as="geometry">
            <mxPoint x="240" y="450" as="sourcePoint" />
            <mxPoint x="340" y="350" as="targetPoint" />
          </mxGeometry>
        </mxCell>
        <mxCell id="nQn1hIN5MEKfU32s6l5k-327" value="&lt;font style=&quot;font-size: 10px;&quot;&gt;department_id&lt;/font&gt;" style="ellipse;whiteSpace=wrap;html=1;strokeColor=#000000;strokeWidth=1;" vertex="1" parent="1">
          <mxGeometry x="390" y="120" width="80" height="20" as="geometry" />
        </mxCell>
        <mxCell id="nQn1hIN5MEKfU32s6l5k-328" value="&lt;font style=&quot;font-size: 10px;&quot;&gt;department_name&lt;/font&gt;" style="ellipse;whiteSpace=wrap;html=1;strokeColor=#000000;strokeWidth=1;" vertex="1" parent="1">
          <mxGeometry x="455" y="100" width="110" height="20" as="geometry" />
        </mxCell>
        <mxCell id="nQn1hIN5MEKfU32s6l5k-329" value="&lt;font style=&quot;font-size: 10px;&quot;&gt;city&lt;/font&gt;" style="ellipse;whiteSpace=wrap;html=1;strokeColor=#000000;strokeWidth=1;" vertex="1" parent="1">
          <mxGeometry x="550" y="120" width="50" height="20" as="geometry" />
        </mxCell>
        <mxCell id="nQn1hIN5MEKfU32s6l5k-330" value="&lt;font style=&quot;font-size: 10px;&quot;&gt;street&lt;/font&gt;" style="ellipse;whiteSpace=wrap;html=1;strokeColor=#000000;strokeWidth=1;" vertex="1" parent="1">
          <mxGeometry x="580" y="140" width="70" height="20" as="geometry" />
        </mxCell>
        <mxCell id="nQn1hIN5MEKfU32s6l5k-331" value="&lt;font style=&quot;font-size: 10px;&quot;&gt;building_nomber&lt;/font&gt;" style="ellipse;whiteSpace=wrap;html=1;strokeColor=#000000;strokeWidth=1;dashed=1;" vertex="1" parent="1">
          <mxGeometry x="560" y="170" width="90" height="20" as="geometry" />
        </mxCell>
        <mxCell id="nQn1hIN5MEKfU32s6l5k-333" value="" style="endArrow=none;html=1;rounded=0;entryX=0.5;entryY=1;entryDx=0;entryDy=0;exitX=0.25;exitY=0;exitDx=0;exitDy=0;" edge="1" parent="1" source="nQn1hIN5MEKfU32s6l5k-323" target="nQn1hIN5MEKfU32s6l5k-327">
          <mxGeometry width="50" height="50" relative="1" as="geometry">
            <mxPoint x="270" y="420" as="sourcePoint" />
            <mxPoint x="320" y="370" as="targetPoint" />
          </mxGeometry>
        </mxCell>
        <mxCell id="nQn1hIN5MEKfU32s6l5k-334" value="" style="endArrow=none;html=1;rounded=0;entryX=0.5;entryY=1;entryDx=0;entryDy=0;exitX=0.5;exitY=0;exitDx=0;exitDy=0;" edge="1" parent="1" source="nQn1hIN5MEKfU32s6l5k-323" target="nQn1hIN5MEKfU32s6l5k-328">
          <mxGeometry width="50" height="50" relative="1" as="geometry">
            <mxPoint x="270" y="420" as="sourcePoint" />
            <mxPoint x="320" y="370" as="targetPoint" />
          </mxGeometry>
        </mxCell>
        <mxCell id="nQn1hIN5MEKfU32s6l5k-335" value="" style="endArrow=none;html=1;rounded=0;entryX=0;entryY=1;entryDx=0;entryDy=0;" edge="1" parent="1" source="nQn1hIN5MEKfU32s6l5k-323" target="nQn1hIN5MEKfU32s6l5k-329">
          <mxGeometry width="50" height="50" relative="1" as="geometry">
            <mxPoint x="270" y="420" as="sourcePoint" />
            <mxPoint x="320" y="370" as="targetPoint" />
          </mxGeometry>
        </mxCell>
        <mxCell id="nQn1hIN5MEKfU32s6l5k-336" value="" style="endArrow=none;html=1;rounded=0;entryX=0;entryY=0.5;entryDx=0;entryDy=0;exitX=1;exitY=0.25;exitDx=0;exitDy=0;" edge="1" parent="1" source="nQn1hIN5MEKfU32s6l5k-323" target="nQn1hIN5MEKfU32s6l5k-330">
          <mxGeometry width="50" height="50" relative="1" as="geometry">
            <mxPoint x="270" y="420" as="sourcePoint" />
            <mxPoint x="320" y="370" as="targetPoint" />
          </mxGeometry>
        </mxCell>
        <mxCell id="nQn1hIN5MEKfU32s6l5k-337" value="" style="endArrow=none;html=1;rounded=0;entryX=0;entryY=0.5;entryDx=0;entryDy=0;exitX=1;exitY=0.75;exitDx=0;exitDy=0;" edge="1" parent="1" source="nQn1hIN5MEKfU32s6l5k-323" target="nQn1hIN5MEKfU32s6l5k-331">
          <mxGeometry width="50" height="50" relative="1" as="geometry">
            <mxPoint x="270" y="420" as="sourcePoint" />
            <mxPoint x="320" y="370" as="targetPoint" />
          </mxGeometry>
        </mxCell>
        <mxCell id="nQn1hIN5MEKfU32s6l5k-338" value="" style="endArrow=none;html=1;rounded=0;entryX=0;entryY=0.5;entryDx=0;entryDy=0;exitX=1;exitY=0.25;exitDx=0;exitDy=0;" edge="1" parent="1" source="nQn1hIN5MEKfU32s6l5k-214" target="nQn1hIN5MEKfU32s6l5k-322">
          <mxGeometry width="50" height="50" relative="1" as="geometry">
            <mxPoint x="270" y="400" as="sourcePoint" />
            <mxPoint x="320" y="350" as="targetPoint" />
          </mxGeometry>
        </mxCell>
      </root>
    </mxGraphModel>
  </diagram>
</mxfile>
